<svg width="20" height="20" viewBox="0 0 20 20" fill="none" xmlns="http://www.w3.org/2000/svg">
<path d="M7.5 9.1665H8.25C8.25 8.75229 7.91421 8.4165 7.5 8.4165V9.1665ZM7.5 16.6665V17.4165C7.91421 17.4165 8.25 17.0807 8.25 16.6665H7.5ZM2.5 16.6665H1.75C1.75 17.0807 2.08579 17.4165 2.5 17.4165V16.6665ZM3.33333 9.9165H7.5V8.4165H3.33333V9.9165ZM6.75 9.1665V16.6665H8.25V9.1665H6.75ZM7.5 15.9165H2.5V17.4165H7.5V15.9165ZM3.25 16.6665V9.99984H1.75V16.6665H3.25ZM3.33333 8.4165C2.45888 8.4165 1.75 9.12539 1.75 9.99984H3.25C3.25 9.95381 3.28731 9.9165 3.33333 9.9165V8.4165Z" fill="#32B687"/>
<path d="M12.5 6.6665V5.9165C12.0858 5.9165 11.75 6.25229 11.75 6.6665H12.5ZM17.5 16.6665V17.4165C17.9142 17.4165 18.25 17.0807 18.25 16.6665H17.5ZM12.5 16.6665H11.75C11.75 17.0807 12.0858 17.4165 12.5 17.4165V16.6665ZM12.5 7.4165H16.6667V5.9165H12.5V7.4165ZM16.75 7.49984V16.6665H18.25V7.49984H16.75ZM17.5 15.9165H12.5V17.4165H17.5V15.9165ZM13.25 16.6665V6.6665H11.75V16.6665H13.25ZM16.6667 7.4165C16.7127 7.4165 16.75 7.45381 16.75 7.49984H18.25C18.25 6.62539 17.5411 5.9165 16.6667 5.9165V7.4165Z" fill="#32B687"/>
<path d="M12.5 16.6668V17.4168C12.9142 17.4168 13.25 17.081 13.25 16.6668H12.5ZM7.5 16.6668H6.75C6.75 17.081 7.08579 17.4168 7.5 17.4168V16.6668ZM8.33333 4.0835H11.6667V2.5835H8.33333V4.0835ZM11.75 4.16683V16.6668H13.25V4.16683H11.75ZM12.5 15.9168H7.5V17.4168H12.5V15.9168ZM8.25 16.6668V4.16683H6.75V16.6668H8.25ZM11.6667 4.0835C11.7127 4.0835 11.75 4.12081 11.75 4.16683H13.25C13.25 3.29238 12.5411 2.5835 11.6667 2.5835V4.0835ZM8.33333 2.5835C7.45888 2.5835 6.75 3.29238 6.75 4.16683H8.25C8.25 4.12081 8.28731 4.0835 8.33333 4.0835V2.5835Z" fill="#32B687"/>
</svg>
