<svg width="20" height="20" viewBox="0 0 20 20" fill="none" xmlns="http://www.w3.org/2000/svg">
<path d="M9.46983 11.9697C9.17694 12.2626 9.17694 12.7374 9.46983 13.0303C9.76273 13.3232 10.2376 13.3232 10.5305 13.0303L9.46983 11.9697ZM12.5002 10L13.0305 10.5303C13.1711 10.3897 13.2502 10.1989 13.2502 10C13.2502 9.80109 13.1711 9.61032 13.0305 9.46967L12.5002 10ZM10.5305 6.96967C10.2376 6.67678 9.76273 6.67678 9.46983 6.96967C9.17694 7.26256 9.17694 7.73744 9.46983 8.03033L10.5305 6.96967ZM3.3335 9.25C2.91928 9.25 2.5835 9.58579 2.5835 10C2.5835 10.4142 2.91928 10.75 3.3335 10.75L3.3335 9.25ZM10.5305 13.0303L13.0305 10.5303L11.9698 9.46967L9.46983 11.9697L10.5305 13.0303ZM13.0305 9.46967L10.5305 6.96967L9.46983 8.03033L11.9698 10.5303L13.0305 9.46967ZM3.3335 10.75L12.5002 10.75L12.5002 9.25L3.3335 9.25L3.3335 10.75Z" fill="#FF4545"/>
<path d="M7.5 5.8335V4.16683C7.5 3.70659 7.8731 3.3335 8.33333 3.3335H15.8333C16.2936 3.3335 16.6667 3.70659 16.6667 4.16683V15.8335C16.6667 16.2937 16.2936 16.6668 15.8333 16.6668H8.33333C7.8731 16.6668 7.5 16.2937 7.5 15.8335V14.1668" stroke="#FF4545" stroke-width="1.5" stroke-linecap="round" stroke-linejoin="round"/>
</svg>
