<svg width="40" height="40" viewBox="0 0 40 40" fill="none" xmlns="http://www.w3.org/2000/svg">
<rect width="40" height="40" rx="10" fill="#FF4545"/>
<path d="M17 25V24C16.4477 24 16 24.4477 16 25H17ZM23 25H24C24 24.4477 23.5523 24 23 24V25ZM17 26H23V24H17V26ZM22 25V26H24V25H22ZM18 26V25H16V26H18ZM20 28C18.8954 28 18 27.1046 18 26H16C16 28.2091 17.7909 30 20 30V28ZM22 26C22 27.1046 21.1046 28 20 28V30C22.2091 30 24 28.2091 24 26H22Z" fill="white"/>
<path d="M13 25H27C27.5523 25 28 24.5523 28 24V23.4142C28 23.149 27.8946 22.8947 27.7071 22.7071L27.1963 22.1963C27.0706 22.0706 27 21.9001 27 21.7224V18C27 14.134 23.866 11 20 11C16.134 11 13 14.134 13 18V21.7224C13 21.9002 12.9294 22.0706 12.8037 22.1963L12.2929 22.7071C12.1054 22.8947 12 23.149 12 23.4142V24C12 24.5523 12.4477 25 13 25Z" fill="white"/>
<path d="M12.2929 22.7071L11.5858 22L11.5858 22L12.2929 22.7071ZM12.8037 22.1963L13.5108 22.9034L13.5108 22.9034L12.8037 22.1963ZM27.1963 22.1963L27.9034 21.4892L27.9034 21.4892L27.1963 22.1963ZM27.7071 22.7071L28.4142 22L28.4142 22L27.7071 22.7071ZM20 11L20 12L20 11ZM27 24H13V26H27V24ZM13 24V23.4142H11V24H13ZM13 23.4142L13.5108 22.9034L12.0966 21.4892L11.5858 22L13 23.4142ZM14 21.7224V18H12V21.7224H14ZM26 18V21.7224H28V18H26ZM26.4892 22.9034L27 23.4142L28.4142 22L27.9034 21.4892L26.4892 22.9034ZM27 23.4142V24H29V23.4142H27ZM27 23.4142L27 23.4142H29C29 22.8838 28.7893 22.3751 28.4142 22L27 23.4142ZM26 21.7224C26 22.1653 26.176 22.5901 26.4892 22.9034L27.9034 21.4892C27.9653 21.551 28 21.6349 28 21.7224H26ZM28 18C28 13.5817 24.4183 9.99999 20 10L20 12C23.3137 12 26 14.6863 26 18H28ZM14 18C14 14.6863 16.6863 12 20 12L20 10C15.5817 10 12 13.5817 12 18H14ZM13.5108 22.9034C13.824 22.5902 14 22.1654 14 21.7224H12C12 21.635 12.0348 21.5511 12.0966 21.4892L13.5108 22.9034ZM13 23.4142H13L11.5858 22C11.2107 22.3751 11 22.8838 11 23.4142H13ZM13 24H11C11 25.1046 11.8954 26 13 26V24ZM27 26C28.1046 26 29 25.1046 29 24H27V26Z" fill="white"/>
</svg>
