<svg width="40" height="40" viewBox="0 0 40 40" fill="none" xmlns="http://www.w3.org/2000/svg">
<rect width="40" height="40" rx="10" fill="#FBBE34"/>
<path d="M12.4766 12.8727H27.4766C27.6518 12.8726 27.8268 12.8837 28.0006 12.906C27.9417 12.4924 27.7997 12.0951 27.583 11.7379C27.3664 11.3808 27.0797 11.0712 26.7402 10.8278C26.4007 10.5844 26.0154 10.4124 25.6076 10.3219C25.1998 10.2315 24.7779 10.2246 24.3674 10.3016L12.0313 12.4077H12.0172C11.2429 12.5558 10.5543 12.9939 10.092 13.6325C10.7884 13.1372 11.622 12.8716 12.4766 12.8727Z" fill="white"/>
<path d="M27.4766 13.9998H12.4766C11.6812 14.0006 10.9186 14.317 10.3562 14.8794C9.79378 15.4418 9.47743 16.2044 9.47656 16.9998V25.9998C9.47743 26.7951 9.79378 27.5577 10.3562 28.1201C10.9186 28.6825 11.6812 28.9989 12.4766 28.9998H27.4766C28.2719 28.9989 29.0345 28.6825 29.5969 28.1201C30.1593 27.5577 30.4757 26.7951 30.4766 25.9998V16.9998C30.4757 16.2044 30.1593 15.4418 29.5969 14.8794C29.0345 14.317 28.2719 14.0006 27.4766 13.9998ZM25.25 22.9998C24.9533 22.9998 24.6633 22.9118 24.4166 22.747C24.17 22.5821 23.9777 22.3479 23.8642 22.0738C23.7506 21.7997 23.7209 21.4981 23.7788 21.2071C23.8367 20.9161 23.9796 20.6489 24.1893 20.4391C24.3991 20.2293 24.6664 20.0865 24.9574 20.0286C25.2483 19.9707 25.5499 20.0004 25.824 20.1139C26.0981 20.2275 26.3324 20.4197 26.4972 20.6664C26.662 20.9131 26.75 21.2031 26.75 21.4998C26.75 21.8976 26.592 22.2791 26.3107 22.5604C26.0293 22.8417 25.6478 22.9998 25.25 22.9998Z" fill="white"/>
<path d="M9.5 20.1614V15.4973C9.5 14.4815 10.0625 12.7786 12.0148 12.4097C13.6719 12.0989 15.3125 12.0989 15.3125 12.0989C15.3125 12.0989 16.3906 12.8489 15.5 12.8489C14.6094 12.8489 14.6328 13.9973 15.5 13.9973C16.3672 13.9973 15.5 15.0989 15.5 15.0989L12.0078 19.0598L9.5 20.1614Z" fill="white"/>
</svg>
