<svg width="20" height="20" viewBox="0 0 20 20" fill="none" xmlns="http://www.w3.org/2000/svg">
<path d="M14.1665 16.6668C14.1665 16.2066 14.5396 15.8335 14.9998 15.8335C15.4601 15.8335 15.8332 16.2066 15.8332 16.6668C15.8332 17.1271 15.4601 17.5002 14.9998 17.5002C14.5396 17.5002 14.1665 17.1271 14.1665 16.6668Z" stroke="#32B687" stroke-width="1.5" stroke-linecap="round" stroke-linejoin="round"/>
<path d="M5.8335 16.6668C5.8335 16.2066 6.20659 15.8335 6.66683 15.8335C7.12707 15.8335 7.50016 16.2066 7.50016 16.6668C7.50016 17.1271 7.12707 17.5002 6.66683 17.5002C6.20659 17.5002 5.8335 17.1271 5.8335 16.6668Z" stroke="#32B687" stroke-width="1.5" stroke-linecap="round" stroke-linejoin="round"/>
<path d="M2.5 2.5H3.13976C3.54165 2.5 3.88629 2.78683 3.95925 3.18204L5.83333 13.3333" stroke="#32B687" stroke-width="1.5" stroke-linecap="round" stroke-linejoin="round"/>
<path d="M4.5835 5H16.4526C16.9885 5 17.3851 5.49854 17.2646 6.02072L15.7262 12.6874C15.6389 13.0655 15.3022 13.3333 14.9142 13.3333H5.8335" stroke="#32B687" stroke-width="1.5" stroke-linecap="round" stroke-linejoin="round"/>
</svg>
