<svg width="18" height="16" viewBox="0 0 18 16" fill="none" xmlns="http://www.w3.org/2000/svg">
<path d="M16.7895 8C16.7895 9.32644 13.2549 14 8.89474 14C4.53459 14 1 9.32644 1 8C1 6.67356 4.53459 2 8.89474 2C13.2549 2 16.7895 6.67356 16.7895 8Z" fill="#EFEFF6"/>
<path d="M16.7895 8C16.7895 9.32644 13.2549 14 8.89474 14C4.53459 14 1 9.32644 1 8C1 6.67356 4.53459 2 8.89474 2C13.2549 2 16.7895 6.67356 16.7895 8Z" stroke="#393762" stroke-width="1.5" stroke-linejoin="round"/>
<path d="M8.88722 10.7744C10.4818 10.7744 11.7744 9.48178 11.7744 7.88722C11.7744 6.29265 10.4818 5 8.88722 5C7.29265 5 6 6.29265 6 7.88722C6 9.48178 7.29265 10.7744 8.88722 10.7744Z" fill="white" stroke="#393762" stroke-width="1.5" stroke-linecap="round" stroke-linejoin="round"/>
</svg>
